<svg xmlns="http://www.w3.org/2000/svg" version="1.1" xmlns:xlink="http://www.w3.org/1999/xlink" xmlns:svgjs="http://svgjs.com/svgjs" width="47" height="28"><svg width="47" height="28" viewBox="0 0 47 28" fill="none" xmlns="http://www.w3.org/2000/svg">
<path fill-rule="evenodd" clip-rule="evenodd" d="M0.712097 0.5H30.1412L30.2615 0.573839C39.0665 5.97688 43.8101 10.3654 45.5572 13.948C46.442 15.7624 46.5755 17.4065 46.0342 18.8662C45.4984 20.3112 44.3312 21.4943 42.7767 22.462C39.6788 24.3904 34.856 25.5785 29.6002 26.2599C24.3264 26.9437 18.5478 27.1253 13.4876 26.9998L13.179 26.9922L0.712097 0.5ZM2.28788 1.5L13.8208 26.0074C18.769 26.1171 24.3674 25.93 29.4716 25.2682C34.7002 24.5903 39.342 23.4221 42.2483 21.613C43.6958 20.7119 44.6656 19.681 45.0966 18.5186C45.5221 17.3709 45.4522 16.0142 44.6584 14.3863C43.0556 11.0997 38.5747 6.862 29.8587 1.5H2.28788Z" fill="black"></path>
</svg><style>@media (prefers-color-scheme: light) { :root { filter: none; } }
</style></svg>